<svg id="visual" viewBox="0 0 960 300" width="960" height="300" xmlns="http://www.w3.org/2000/svg" xmlns:xlink="http://www.w3.org/1999/xlink" version="1.1"><path d="M0 178L22.8 172.8C45.7 167.7 91.3 157.3 137 151.3C182.7 145.3 228.3 143.7 274 143C319.7 142.3 365.3 142.7 411.2 140C457 137.3 503 131.7 548.8 138C594.7 144.3 640.3 162.7 686 168.2C731.7 173.7 777.3 166.3 823 163.3C868.7 160.3 914.3 161.7 937.2 162.3L960 163L960 301L937.2 301C914.3 301 868.7 301 823 301C777.3 301 731.7 301 686 301C640.3 301 594.7 301 548.8 301C503 301 457 301 411.2 301C365.3 301 319.7 301 274 301C228.3 301 182.7 301 137 301C91.3 301 45.7 301 22.8 301L0 301Z" fill="#c62368"></path><path d="M0 186L22.8 184.2C45.7 182.3 91.3 178.7 137 172C182.7 165.3 228.3 155.7 274 157.7C319.7 159.7 365.3 173.3 411.2 180.5C457 187.7 503 188.3 548.8 189.5C594.7 190.7 640.3 192.3 686 192C731.7 191.7 777.3 189.3 823 186C868.7 182.7 914.3 178.3 937.2 176.2L960 174L960 301L937.2 301C914.3 301 868.7 301 823 301C777.3 301 731.7 301 686 301C640.3 301 594.7 301 548.8 301C503 301 457 301 411.2 301C365.3 301 319.7 301 274 301C228.3 301 182.7 301 137 301C91.3 301 45.7 301 22.8 301L0 301Z" fill="#af65c0"></path><path d="M0 215L22.8 210C45.7 205 91.3 195 137 194.7C182.7 194.3 228.3 203.7 274 208.7C319.7 213.7 365.3 214.3 411.2 210.5C457 206.7 503 198.3 548.8 192.5C594.7 186.7 640.3 183.3 686 183.5C731.7 183.7 777.3 187.3 823 189.7C868.7 192 914.3 193 937.2 193.5L960 194L960 301L937.2 301C914.3 301 868.7 301 823 301C777.3 301 731.7 301 686 301C640.3 301 594.7 301 548.8 301C503 301 457 301 411.2 301C365.3 301 319.7 301 274 301C228.3 301 182.7 301 137 301C91.3 301 45.7 301 22.8 301L0 301Z" fill="#6e9af0"></path><path d="M0 202L22.8 206.7C45.7 211.3 91.3 220.7 137 222.2C182.7 223.7 228.3 217.3 274 212.7C319.7 208 365.3 205 411.2 203.7C457 202.3 503 202.7 548.8 204C594.7 205.3 640.3 207.7 686 211.8C731.7 216 777.3 222 823 223.7C868.7 225.3 914.3 222.7 937.2 221.3L960 220L960 301L937.2 301C914.3 301 868.7 301 823 301C777.3 301 731.7 301 686 301C640.3 301 594.7 301 548.8 301C503 301 457 301 411.2 301C365.3 301 319.7 301 274 301C228.3 301 182.7 301 137 301C91.3 301 45.7 301 22.8 301L0 301Z" fill="#4facf7"></path><path d="M0 251L22.8 249.5C45.7 248 91.3 245 137 240.3C182.7 235.7 228.3 229.3 274 230.7C319.7 232 365.3 241 411.2 242.5C457 244 503 238 548.8 233.2C594.7 228.3 640.3 224.7 686 225.3C731.7 226 777.3 231 823 232.7C868.7 234.3 914.3 232.7 937.2 231.8L960 231L960 301L937.2 301C914.3 301 868.7 301 823 301C777.3 301 731.7 301 686 301C640.3 301 594.7 301 548.8 301C503 301 457 301 411.2 301C365.3 301 319.7 301 274 301C228.3 301 182.7 301 137 301C91.3 301 45.7 301 22.8 301L0 301Z" fill="#6e9af0"></path><path d="M0 237L22.8 238C45.7 239 91.3 241 137 243.8C182.7 246.7 228.3 250.3 274 253.5C319.7 256.7 365.3 259.3 411.2 260.8C457 262.3 503 262.7 548.8 263.5C594.7 264.3 640.3 265.7 686 261.5C731.7 257.3 777.3 247.7 823 245.2C868.7 242.7 914.3 247.3 937.2 249.7L960 252L960 301L937.2 301C914.3 301 868.7 301 823 301C777.3 301 731.7 301 686 301C640.3 301 594.7 301 548.8 301C503 301 457 301 411.2 301C365.3 301 319.7 301 274 301C228.3 301 182.7 301 137 301C91.3 301 45.7 301 22.8 301L0 301Z" fill="#af65c0"></path><path d="M0 282L22.8 281.3C45.7 280.7 91.3 279.3 137 279.3C182.7 279.3 228.3 280.7 274 280.2C319.7 279.7 365.3 277.3 411.2 277C457 276.7 503 278.3 548.8 276.8C594.7 275.3 640.3 270.7 686 270.5C731.7 270.3 777.3 274.7 823 274.8C868.7 275 914.3 271 937.2 269L960 267L960 301L937.2 301C914.3 301 868.7 301 823 301C777.3 301 731.7 301 686 301C640.3 301 594.7 301 548.8 301C503 301 457 301 411.2 301C365.3 301 319.7 301 274 301C228.3 301 182.7 301 137 301C91.3 301 45.7 301 22.8 301L0 301Z" fill="#c62368"></path></svg>